<svg version="1.2" xmlns="http://www.w3.org/2000/svg" viewBox="0 0 305 218" width="305" height="218"><defs><clipPath clipPathUnits="userSpaceOnUse" id="cp1"><path d="m-1135-1502h1440v2176h-1440z"/></clipPath><linearGradient id="P" gradientUnits="userSpaceOnUse"/><linearGradient id="g1" x1="96.2" y1="5.7" x2="337.3" y2="217.6" href="#P"><stop offset=".1" stop-color="#2563eb"/><stop offset="1" stop-color="#f3f4f6"/></linearGradient><linearGradient id="g2" x1="-24.9" y1="-22.5" x2="235.6" y2="227.8" href="#P"><stop offset=".4" stop-color="#2563eb"/><stop offset="1" stop-color="#fff"/></linearGradient><linearGradient id="g3" x1="-12.7" y1="73.8" x2="130.2" y2="202.6" href="#P"><stop stop-color="#03dac5"/><stop offset="1" stop-color="#f6f6f6"/></linearGradient></defs><style>.a{opacity:.5;fill:url(#g1)}.b{opacity:.5;fill:url(#g2)}.c{opacity:.5;fill-opacity:.8;fill:url(#g3)}</style><g clip-path="url(#cp1)"><path class="a" d="m168 26.7l128.4 137.1c11.5 12.3 11.5 32.2 0 44.5-11.6 12.3-30.3 12.3-41.8 0l-128.4-137.1c-11.5-12.3-11.5-32.2 0-44.5 11.6-12.3 30.2-12.3 41.8 0z"/><path class="b" d="m58.4 10.5l137.2 140.1c13 13.3 13 34.7 0 48-13 13.2-34.1 13.2-47.1 0l-137.1-140.1c-13-13.3-13-34.7 0-48 13-13.2 34-13.2 47 0z"/><path class="c" d="m32.4 87.8l74.2 78.1c7.4 7.8 7.4 20.4 0 28.2-7.4 7.7-19.3 7.7-26.7 0l-74.2-78.2c-7.4-7.8-7.4-20.4 0-28.1 7.4-7.8 19.3-7.8 26.7 0z"/></g></svg>